<?xml version="1.0" standalone="no"?>
<!DOCTYPE svg PUBLIC "-//W3C//DTD SVG 20010904//EN"
 "http://www.w3.org/TR/2001/REC-SVG-20010904/DTD/svg10.dtd">
<svg version="1.0" xmlns="http://www.w3.org/2000/svg"
 width="500.000000pt" height="500.000000pt" viewBox="0 0 500.000000 500.000000"
 preserveAspectRatio="xMidYMid meet">

<g transform="translate(0.000000,500.000000) scale(0.100000,-0.100000)"
fill="#000000" stroke="none">
<path d="M1014 3399 c-55 -13 -121 -70 -134 -117 -8 -25 -10 -303 -8 -883 l3
-845 24 -36 c13 -19 40 -46 59 -59 l36 -24 370 0 c369 0 371 0 411 23 22 13
52 39 65 59 23 34 25 46 26 162 l2 126 -7 -116 c-8 -130 -23 -168 -80 -206
-46 -31 -98 -35 -451 -31 -313 3 -315 3 -357 27 -29 16 -50 39 -63 66 -20 41
-20 57 -18 888 3 836 3 846 24 873 11 15 33 37 48 48 26 20 42 21 398 24 l370
3 43 -25 c52 -31 73 -71 84 -168 l10 -73 -2 86 c-2 76 -5 89 -29 121 -15 20
-45 47 -65 60 -38 23 -40 23 -378 25 -189 1 -358 -3 -381 -8z"/>
<path d="M1373 2173 c-7 -2 -13 -15 -13 -28 0 -17 8 -26 31 -34 43 -15 36 -47
-9 -45 -17 1 -29 -2 -26 -7 10 -17 63 -10 74 10 11 22 -5 45 -40 56 -11 3 -20
12 -20 20 0 16 25 26 47 18 11 -4 14 -3 9 5 -7 12 -31 14 -53 5z"/>
<path d="M1470 2115 l0 -65 43 2 42 1 -37 4 c-32 4 -38 8 -38 28 0 19 6 24 33
28 l32 4 -33 1 c-29 2 -33 5 -30 24 2 16 12 25 33 29 29 6 29 7 -7 8 l-38 1 0
-65z"/>
<path d="M1582 2118 l-2 -68 38 2 c36 1 36 1 5 5 -32 4 -32 5 -36 66 l-3 62
-2 -67z"/>
<path d="M1680 2115 l0 -65 43 2 42 1 -37 4 c-32 4 -38 8 -38 28 0 19 6 24 33
28 l32 4 -33 1 c-29 2 -33 5 -30 24 2 16 12 25 33 29 29 6 29 7 -7 8 l-38 1 0
-65z"/>
<path d="M1793 2173 c14 -4 17 -16 17 -64 0 -33 4 -59 10 -59 6 0 10 26 10 59
0 48 3 60 18 64 9 3 -3 5 -28 5 -25 0 -37 -2 -27 -5z"/>
<path d="M1893 2115 c0 -48 2 -59 6 -36 l6 35 27 -32 c35 -42 47 -42 14 0
l-25 32 25 33 c32 42 21 43 -14 1 l-27 -32 -6 35 c-4 23 -6 12 -6 -36z"/>
<path d="M2017 2162 c-22 -24 -22 -76 -1 -97 42 -42 106 12 83 71 -17 47 -53
58 -82 26z m54 -2 c23 -13 26 -72 4 -90 -39 -32 -81 29 -51 75 19 28 20 29 47
15z"/>
<path d="M2131 2176 c-2 -15 41 -126 48 -126 4 0 15 24 26 53 10 28 20 58 23
66 3 8 1 12 -5 8 -6 -4 -16 -27 -23 -52 -12 -42 -30 -61 -30 -32 -1 15 -38 95
-39 83z"/>
<path d="M2263 2115 c0 -48 2 -59 6 -36 l6 35 27 -32 c35 -42 47 -42 14 0
l-25 32 25 33 c32 42 21 43 -14 1 l-27 -32 -6 35 c-4 23 -6 12 -6 -36z"/>
<path d="M2387 2162 c-35 -38 -13 -112 33 -112 47 0 69 80 32 113 -24 22 -45
21 -65 -1z m57 -8 c29 -29 13 -94 -24 -94 -21 0 -40 28 -40 59 0 20 24 51 40
51 5 0 16 -7 24 -16z"/>
</g>
</svg>
